<?xml version="1.0" encoding="UTF-8" standalone="no"?>
<svg
   xmlns:dc="http://purl.org/dc/elements/1.1/"
   xmlns:cc="http://creativecommons.org/ns#"
   xmlns:rdf="http://www.w3.org/1999/02/22-rdf-syntax-ns#"
   xmlns:svg="http://www.w3.org/2000/svg"
   xmlns="http://www.w3.org/2000/svg"
   xmlns:sodipodi="http://sodipodi.sourceforge.net/DTD/sodipodi-0.dtd"
   xmlns:inkscape="http://www.inkscape.org/namespaces/inkscape"
   height="512"
   viewBox="0 0 16 16"
   width="512"
   version="1.1"
   id="svg8"
   sodipodi:docname="increment.svg"
   inkscape:version="1.0.2 (1.0.2+r75+1)">
  <metadata
     id="metadata14">
    <rdf:RDF>
      <cc:Work
         rdf:about="">
        <dc:format>image/svg+xml</dc:format>
        <dc:type
           rdf:resource="http://purl.org/dc/dcmitype/StillImage" />
      </cc:Work>
    </rdf:RDF>
  </metadata>
  <defs
     id="defs12" />
  <sodipodi:namedview
     pagecolor="#ffffff"
     bordercolor="#666666"
     borderopacity="1"
     objecttolerance="10"
     gridtolerance="10"
     guidetolerance="10"
     inkscape:pageopacity="0"
     inkscape:pageshadow="2"
     inkscape:window-width="1920"
     inkscape:window-height="1018"
     id="namedview10"
     showgrid="false"
     inkscape:zoom="0.87597656"
     inkscape:cx="165.02398"
     inkscape:cy="264.23781"
     inkscape:window-x="0"
     inkscape:window-y="34"
     inkscape:window-maximized="1"
     inkscape:current-layer="svg8" />
  <g
     id="g866">
    <g
       id="Layer_1"
       data-name="Layer 1"
       style="fill:#231f20;fill-opacity:1">
      <path
         d="m11.508 11.538h-7.016a.5.5 0 0 1 -.433-.75l3.508-6.076a.52.52 0 0 1 .866 0l3.508 6.076a.5.5 0 0 1 -.433.75zm-6.15-1h5.284l-2.642-4.576z"
         fill="#ff6495"
         id="path2"
         style="fill:#231f20;fill-opacity:1" />
    </g>
    <path
       d="M 8,1 A 7,7 0 1 1 1,8 7.008,7.008 0 0 1 8,1 M 8,0 A 8,8 0 1 0 16,8 8,8 0 0 0 8,0 Z"
       fill="#4d05e8"
       id="path5"
       style="fill:#c4332e;fill-opacity:1" />
  </g>
</svg>
